# xmcd
#
# Track frame offsets:
# 150
# 17337
# 32226
# 42946
# 58055
# 85910
# 97631
# 111711
# 127521
# 139564
# 157304
# 173529
# 186796
# 201864
# 219557
# 231997
# 249470
# 265106
# 279860
# 296436
#
# Disc length: 4138 seconds
#
# Revision: 1
# Processed by: cddbd v1.5.1PL0 Copyright (c) Steve Scherf et al.
# Submitted via: CedeCatalogueitor 2.6.0.4 http://personales.ya.com/cdcatalogueitor
#
DISCID=12102814
DTITLE=Varios - Top 100 Country CD 5
DYEAR=1900
DGENRE=
TTITLE0=Jacob's Ladder
TTITLE1=King Of The Road
TTITLE2=Party Crowd
TTITLE3=Trouble Is A Woman
TTITLE4=Someone Else's Star
TTITLE5=Road Man
TTITLE6=Put Yor Heart Into It
TTITLE7=Don't You Want My Love
TTITLE8=Nobody Wins
TTITLE9=All Things Considered
TTITLE10=Baby Likes To Rock It
TTITLE11=Ease My Troubled Mind
TTITLE12=A Day In The Life
TTITLE13=Dance
TTITLE14=Cross My Broken Heart
TTITLE15=Swing City
TTITLE16=Long Legged Hannah
TTITLE17=If The House Is Rockinn'
TTITLE18=Bobbie Ann Mason
TTITLE19=Drinkin' My Baby Goodbye
EXTD=
EXTT0=
EXTT1=
EXTT2=
EXTT3=
EXTT4=
EXTT5=
EXTT6=
EXTT7=
EXTT8=
EXTT9=
EXTT10=
EXTT11=
EXTT12=
EXTT13=
EXTT14=
EXTT15=
EXTT16=
EXTT17=
EXTT18=
EXTT19=
PLAYORDER=
